<?xml version="1.0" standalone="no"?>
<!DOCTYPE svg PUBLIC "-//W3C//DTD SVG 20010904//EN"
 "http://www.w3.org/TR/2001/REC-SVG-20010904/DTD/svg10.dtd">
<svg version="1.0" xmlns="http://www.w3.org/2000/svg"
 width="490.000000pt" height="490.000000pt" viewBox="0 0 490.000000 490.000000"
 preserveAspectRatio="xMidYMid meet">
<metadata>
Created by potrace 1.11, written by Peter Selinger 2001-2013
</metadata>
<g transform="translate(0.000000,490.000000) scale(0.100000,-0.100000)"
fill="#000000" stroke="none">
<path d="M3035 4585 c-420 -255 -525 -314 -545 -310 -14 3 -174 9 -357 12
l-331 6 -44 -67 c-23 -36 -47 -66 -51 -66 -4 0 -81 30 -170 66 -89 37 -168 69
-176 72 -8 3 40 -66 107 -154 67 -88 122 -163 122 -167 0 -4 -318 -494 -706
-1089 -389 -596 -709 -1089 -712 -1096 -2 -7 128 -381 289 -830 l294 -817 620
-68 c540 -59 645 -68 812 -68 l192 -1 1181 812 c970 667 1180 815 1179 833 0
12 -100 576 -222 1252 l-222 1230 -549 43 c-302 23 -551 44 -553 45 -1 2 74
142 167 311 179 324 202 366 198 366 -2 0 -237 -142 -523 -315z"/>
</g>
</svg>
